<svg width="22" height="22" viewBox="0 0 22 22" fill="none" xmlns="http://www.w3.org/2000/svg">
<path d="M11.1468 9.96384C11.0552 9.95467 10.9452 9.95467 10.8443 9.96384C8.66268 9.89051 6.93018 8.10301 6.93018 5.90301C6.93018 3.65717 8.74518 1.83301 11.0002 1.83301C13.246 1.83301 15.0702 3.65717 15.0702 5.90301C15.061 8.10301 13.3285 9.89051 11.1468 9.96384Z" stroke="#FF9F29" stroke-width="1.5" stroke-linecap="round" stroke-linejoin="round"/>
<path d="M6.24725 12.2581C4.02891 13.7431 4.02891 16.1631 6.24725 17.639C8.76808 19.3256 12.9022 19.3256 15.4231 17.639C17.6414 16.154 17.6414 13.734 15.4231 12.2581C12.9114 10.5806 8.77725 10.5806 6.24725 12.2581Z" stroke="#FF9F29" stroke-width="1.5" stroke-linecap="round" stroke-linejoin="round"/>
</svg>
