<svg width="25" height="24" viewBox="0 0 25 24" fill="none" xmlns="http://www.w3.org/2000/svg">
<path d="M17.7672 12.5555C17.7578 10.957 18.482 9.75234 19.9445 8.86406C19.1266 7.69219 17.8891 7.04766 16.2578 6.92344C14.7133 6.80156 13.0234 7.82344 12.4047 7.82344C11.7508 7.82344 10.2555 6.96563 9.07891 6.96563C6.65078 7.00313 4.07031 8.90156 4.07031 12.7641C4.07031 13.9055 4.27891 15.0844 4.69609 16.2984C5.25391 17.8969 7.26484 21.8133 9.3625 21.75C10.4594 21.7242 11.2352 20.9719 12.6625 20.9719C14.0477 20.9719 14.7648 21.75 15.9883 21.75C18.1047 21.7195 19.9234 18.1594 20.4531 16.5563C17.6148 15.218 17.7672 12.6375 17.7672 12.5555ZM15.3039 5.40703C16.4922 3.99609 16.3844 2.71172 16.3492 2.25C15.2992 2.31094 14.0852 2.96484 13.3937 3.76875C12.632 4.63125 12.1844 5.69766 12.2805 6.9C13.4148 6.98672 14.4508 6.40313 15.3039 5.40703Z" fill="white"/>
</svg>
