<svg width="20" height="20" viewBox="0 0 20 20" fill="none" xmlns="http://www.w3.org/2000/svg">
<path d="M2.5 2.5L17.5 17.5" stroke="#64748B" stroke-width="1.5" stroke-linecap="round" stroke-linejoin="round"/>
<path d="M8.81973 8.82249C8.50699 9.13501 8.33121 9.55896 8.33105 10.0011C8.3309 10.4432 8.50638 10.8673 8.81889 11.18C9.13141 11.4927 9.55535 11.6685 9.99747 11.6687C10.4396 11.6688 10.8637 11.4933 11.1764 11.1808" stroke="#64748B" stroke-width="1.5" stroke-linecap="round" stroke-linejoin="round"/>
<path d="M7.80234 4.47083C8.51685 4.26643 9.25667 4.16403 9.99984 4.16666C13.3332 4.16666 16.1107 6.11083 18.3332 9.99999C17.6848 11.1342 16.9898 12.1033 16.2473 12.9067M14.464 14.4575C13.1048 15.3742 11.6182 15.8333 9.99984 15.8333C6.6665 15.8333 3.889 13.8892 1.6665 9.99999C2.80734 8.00416 4.094 6.52083 5.5265 5.54916" stroke="#64748B" stroke-width="1.5" stroke-linecap="round" stroke-linejoin="round"/>
</svg>
