<svg width="142" height="121" viewBox="0 0 142 121" fill="none" xmlns="http://www.w3.org/2000/svg">
<rect x="8" width="120" height="120" rx="60" fill="#1B2537"/>
<g filter="url(#filter0_d_2423_20898)">
<mask id="mask0_2423_20898" style="mask-type:alpha" maskUnits="userSpaceOnUse" x="32" y="24" width="72" height="72">
<rect x="32" y="24" width="72" height="72" rx="8" fill="white"/>
</mask>
<g mask="url(#mask0_2423_20898)">
<rect x="32" y="24" width="72" height="72" rx="8" fill="#2A3646"/>
<path d="M53.9621 63.3577C53.8805 63.3562 53.8025 63.3235 53.7442 63.2664C53.6859 63.2092 53.6516 63.1318 53.6486 63.0502L53.2326 47.2836L47.5469 44.5644C47.4927 44.5402 47.447 44.5002 47.4158 44.4497C47.3846 44.3991 47.3694 44.3403 47.3721 44.281C47.3726 44.2223 47.3899 44.1651 47.422 44.1159C47.454 44.0668 47.4995 44.0278 47.553 44.0037L51.4177 42.231L47.5168 40.2052C47.4624 40.1741 47.418 40.128 47.3892 40.0724C47.3603 40.0168 47.3481 39.9541 47.354 39.8917C47.3606 39.8294 47.3861 39.7706 47.427 39.7232C47.468 39.6758 47.5224 39.642 47.5831 39.6264L51.6288 38.5351C51.3032 37.8176 50.5435 36.1595 50.2782 35.4903C50.2527 35.4058 50.2573 35.315 50.2914 35.2336C50.3256 35.1522 50.387 35.0852 50.4651 35.0441C51.478 34.5859 67.4195 37.8477 67.5823 37.8779C74.9984 39.3973 83.9338 41.399 84.3739 42.2793C85.0673 43.666 84.4764 60.5722 84.4041 62.4955C84.4011 62.5745 84.3684 62.6495 84.3125 62.7054C84.2566 62.7613 84.1816 62.794 84.1026 62.797L53.9561 63.3517L53.9621 63.3577ZM48.4151 44.2931L53.6727 46.8073C53.7246 46.8313 53.7685 46.8695 53.7995 46.9176C53.8305 46.9656 53.8471 47.0215 53.8476 47.0786L54.2636 62.7246L83.8072 62.182C84.0725 54.6876 84.2955 43.4912 83.8072 42.5566C83.4032 42.1406 78.0793 40.6634 67.3713 38.4748C58.9303 36.7504 52.5091 35.6712 50.9897 35.6048C51.4298 36.6359 52.3282 38.5893 52.3342 38.6195C52.3534 38.6607 52.3634 38.7055 52.3635 38.7509C52.3637 38.7963 52.3539 38.8412 52.335 38.8825C52.3161 38.9238 52.2884 38.9605 52.2539 38.99C52.2194 39.0196 52.1789 39.0413 52.1352 39.0536L48.5177 40.0303L52.2679 41.9838C52.3191 42.0113 52.3619 42.0521 52.3917 42.1021C52.4214 42.152 52.437 42.2091 52.4367 42.2672C52.4335 42.326 52.4145 42.3829 52.3816 42.4317C52.3487 42.4806 52.3031 42.5196 52.2498 42.5446L48.4151 44.2931Z" fill="#64748B"/>
<path d="M101.992 95.2592C98.4796 99.6758 94.128 103.353 89.1878 106.08C84.2476 108.807 78.8165 110.529 73.2077 111.146C70.0759 111.492 66.9156 111.492 63.7839 111.146C58.1758 110.529 52.7453 108.807 47.8052 106.082C42.8652 103.356 38.5132 99.68 35 95.2652C40.9549 91.0456 47.5371 87.7901 54.5048 85.6183C63.6175 82.7887 73.3741 82.7887 82.4868 85.6183C89.4527 87.7919 96.0343 91.0451 101.992 95.2592Z" fill="#64748B"/>
<path d="M79.0195 63.1949C79.8335 58.1062 88.2866 56.8521 87.8645 62.8512C87.8044 64.9353 87.0076 66.9305 85.6156 68.4826C84.1686 69.9538 81.8352 70.6532 79.948 69.8091" fill="#2A3646"/>
<path d="M81.709 70.4844C81.0593 70.489 80.416 70.3554 79.8218 70.0924C79.7844 70.0761 79.7505 70.0525 79.7223 70.023C79.694 69.9934 79.672 69.9585 79.6574 69.9203C79.6428 69.8822 79.636 69.8415 79.6373 69.8006C79.6386 69.7598 79.648 69.7196 79.6651 69.6825C79.6993 69.6079 79.7614 69.5497 79.838 69.5204C79.9147 69.491 79.9998 69.493 80.0751 69.5257C81.7452 70.2733 83.9278 69.7548 85.3929 68.2656C86.9786 66.6497 87.4489 64.4189 87.5574 62.8392C87.7021 60.7651 86.6892 59.4025 84.8503 59.2216C82.5893 58.9684 79.7615 60.5661 79.3274 63.2854C79.3141 63.3666 79.2693 63.4394 79.2027 63.4879C79.1361 63.5364 79.0531 63.5568 78.9717 63.5446C78.8904 63.5313 78.8177 63.4865 78.7691 63.4199C78.7206 63.3533 78.7003 63.2704 78.7124 63.1889C79.2068 60.126 82.3783 58.3112 84.9226 58.6066C86.6289 58.7996 88.3774 60.0356 88.1784 62.9115C88.0579 64.6058 87.5755 66.9934 85.8391 68.7419C84.7469 69.846 83.2619 70.4725 81.709 70.4844Z" fill="#64748B"/>
<path d="M57.9653 63.1949C57.1514 58.1062 48.7043 56.8521 49.1203 62.8512C49.1852 64.9354 49.9838 66.9297 51.3753 68.4826C52.8223 69.9538 55.1557 70.6532 57.0428 69.8091" fill="#2A3646"/>
<path d="M55.2767 70.4843C54.5039 70.47 53.7416 70.3028 53.0338 69.9923C52.3259 69.6819 51.6866 69.2343 51.1526 68.6755C49.4283 66.927 48.9278 64.5394 48.8133 62.8452C48.6083 59.9692 50.3628 58.7332 52.0691 58.5403C54.6074 58.2448 57.7849 60.0597 58.2732 63.1226C58.2852 63.1644 58.2881 63.2082 58.2819 63.2512C58.2756 63.2943 58.2603 63.3355 58.237 63.3721C58.2136 63.4088 58.1827 63.4401 58.1464 63.464C58.1101 63.4879 58.0691 63.5038 58.0261 63.5106C57.9832 63.5175 57.9393 63.5152 57.8973 63.5038C57.8554 63.4925 57.8163 63.4724 57.7827 63.4448C57.749 63.4173 57.7216 63.3829 57.7023 63.344C57.6829 63.3051 57.672 63.2625 57.6703 63.219C57.2302 60.4998 54.4024 58.896 52.1414 59.1553C50.3025 59.3663 49.2956 60.7349 49.4403 62.7728C49.5488 64.3646 50.0131 66.5954 51.6048 68.1992C53.0639 69.6885 55.2526 70.207 56.9166 69.4593C56.9542 69.4422 56.9948 69.4327 57.0361 69.4313C57.0774 69.4299 57.1186 69.4367 57.1572 69.4512C57.1959 69.4658 57.2313 69.4879 57.2614 69.5162C57.2915 69.5445 57.3157 69.5784 57.3327 69.6161C57.3654 69.6914 57.3673 69.7765 57.338 69.8531C57.3087 69.9298 57.2505 69.9919 57.1759 70.0261C56.5828 70.3127 55.9352 70.469 55.2767 70.4843Z" fill="#64748B"/>
<path d="M59.0928 88.6265C59.0928 88.6265 61.3779 93.6067 68.0523 93.6067C69.9114 93.6574 71.7518 93.2253 73.3939 92.3524C75.0361 91.4795 76.4239 90.1958 77.4219 88.6265L76.5295 69.0675H59.9851L59.0928 88.6265Z" fill="#2A3646"/>
<path d="M68.0524 93.9203C61.2573 93.9203 58.8336 88.8074 58.8094 88.7592C58.7908 88.7131 58.7806 88.6641 58.7793 88.6145L59.6475 69.0554C59.6521 68.9754 59.6872 68.9003 59.7455 68.8453C59.8038 68.7904 59.8809 68.7598 59.961 68.76H76.5296C76.6097 68.7598 76.6868 68.7904 76.7451 68.8453C76.8034 68.9003 76.8385 68.9754 76.8431 69.0554L77.7354 88.6145C77.7356 88.6707 77.7232 88.7263 77.6993 88.7773C76.6666 90.3892 75.2371 91.7087 73.5478 92.6093C71.8586 93.5099 69.9663 93.9613 68.0524 93.9203ZM59.4063 88.5662C59.7078 89.1692 62.005 93.2992 68.0524 93.2992C69.839 93.339 71.6064 92.9239 73.1885 92.0928C74.7706 91.2616 76.1153 90.0419 77.0963 88.5482L76.2221 69.381H60.2806L59.4063 88.5662Z" fill="#64748B"/>
<path d="M59.9851 77.4426C61.2628 79.2948 62.9802 80.8009 64.9834 81.8259C68.2633 83.6347 73.1651 85.6786 77.1445 85.0697L76.4873 76.7974C73.5756 77.1618 70.6311 77.182 67.7147 76.8577C65.1462 76.6286 62.4933 76.3814 60.1419 75.3926C59.7379 75.2117 59.4786 76.6407 59.9851 77.4426Z" fill="#64748B"/>
<path d="M67.8171 78.7448H69.1737C72.2642 78.7464 75.2289 77.5211 77.4165 75.338C79.6041 73.1549 80.8356 70.1927 80.8404 67.1022V48.6104H56.1504V67.1022C56.1552 70.1927 57.3867 73.1549 59.5742 75.338C61.7618 77.5211 64.7266 78.7464 67.8171 78.7448Z" fill="#2A3646"/>
<path d="M80.8408 48.6098V67.1016C80.8408 68.6334 80.539 70.1502 79.9526 71.5654C79.3662 72.9805 78.5067 74.2662 77.4233 75.3491C76.3399 76.432 75.0537 77.2908 73.6383 77.8764C72.2228 78.4621 70.7059 78.7631 69.1741 78.7623H67.8175C66.2857 78.7631 64.7687 78.4621 63.3533 77.8764C61.9379 77.2908 60.6517 76.432 59.5682 75.3491C58.4848 74.2662 57.6253 72.9805 57.039 71.5654C56.4526 70.1502 56.1508 68.6334 56.1508 67.1016V48.6098H80.8408ZM80.8408 48.0068H56.1508C55.9909 48.0068 55.8375 48.0704 55.7244 48.1834C55.6114 48.2965 55.5479 48.4499 55.5479 48.6098V67.1016C55.5526 70.3591 56.8488 73.4817 59.1521 75.7851C61.4555 78.0884 64.5781 79.3846 67.8356 79.3894H69.1921C72.4464 79.3798 75.5645 78.0816 77.8639 75.7787C80.1634 73.4759 81.457 70.3559 81.4618 67.1016V48.6098C81.4618 48.4499 81.3983 48.2965 81.2852 48.1834C81.1721 48.0704 81.0188 48.0068 80.8589 48.0068H80.8408Z" fill="#64748B"/>
<path d="M68.6914 67.2044C68.133 67.2073 67.5751 67.1731 67.0213 67.1019C66.9044 67.0903 66.7921 67.0501 66.6943 66.9849C66.5965 66.9197 66.5163 66.8315 66.4606 66.7281C65.5984 65.2931 67.8775 59.1794 68.3417 57.9675C68.3558 57.9294 68.3773 57.8944 68.405 57.8646C68.4326 57.8349 68.4659 57.8109 68.5029 57.794C68.5399 57.7772 68.5799 57.7679 68.6206 57.7666C68.6612 57.7654 68.7017 57.7722 68.7396 57.7866C68.8171 57.8163 68.8796 57.8755 68.9135 57.9512C68.9474 58.0269 68.95 58.113 68.9205 58.1906C67.8895 60.8857 66.4485 65.4981 66.9911 66.4085C67.0333 66.4748 67.0635 66.4809 67.0937 66.4869C68.1938 66.6052 69.3035 66.6052 70.4037 66.4869C70.4442 66.4819 70.4852 66.4849 70.5244 66.4959C70.5637 66.5068 70.6003 66.5254 70.6323 66.5507C70.6643 66.5759 70.6909 66.6073 70.7107 66.6429C70.7304 66.6785 70.7429 66.7177 70.7474 66.7582C70.7533 66.7983 70.7511 66.8392 70.7409 66.8784C70.7306 66.9176 70.7126 66.9544 70.6878 66.9864C70.663 67.0185 70.6321 67.0453 70.5967 67.0651C70.5614 67.085 70.5224 67.0975 70.4821 67.1019C69.8878 67.1716 69.2898 67.2058 68.6914 67.2044Z" fill="#64748B"/>
<path d="M48.1921 106.509C48.1164 106.51 48.0432 106.483 47.9865 106.433C47.9297 106.382 47.8934 106.313 47.8846 106.238L46.3833 95.102C46.373 95.0197 46.3958 94.9367 46.4467 94.8711C46.4975 94.8056 46.5723 94.7629 46.6546 94.7523C46.736 94.742 46.8182 94.764 46.8836 94.8136C46.949 94.8632 46.9923 94.9364 47.0043 95.0176L48.4815 106.16C48.4918 106.241 48.4698 106.323 48.4202 106.389C48.3706 106.454 48.2974 106.497 48.2162 106.509H48.1921Z" fill="#64748B"/>
</g>
</g>
<circle cx="7" cy="18" r="2" fill="#FFD9A9"/>
<circle cx="140" cy="34" r="2" fill="#FFD9A9"/>
<circle cx="2" cy="119" r="2" fill="#FFD9A9"/>
<rect x="32" y="56" width="72" height="30" fill="url(#paint0_linear_2423_20898)"/>
<g filter="url(#filter1_d_2423_20898)">
<rect x="24" y="80" width="88" height="6" rx="3" fill="#FF9F29"/>
</g>
<defs>
<filter id="filter0_d_2423_20898" x="20" y="16" width="104" height="104" filterUnits="userSpaceOnUse" color-interpolation-filters="sRGB">
<feFlood flood-opacity="0" result="BackgroundImageFix"/>
<feColorMatrix in="SourceAlpha" type="matrix" values="0 0 0 0 0 0 0 0 0 0 0 0 0 0 0 0 0 0 127 0" result="hardAlpha"/>
<feOffset dx="4" dy="8"/>
<feGaussianBlur stdDeviation="8"/>
<feComposite in2="hardAlpha" operator="out"/>
<feColorMatrix type="matrix" values="0 0 0 0 0.0588235 0 0 0 0 0.0901962 0 0 0 0 0.164706 0 0 0 0.04 0"/>
<feBlend mode="normal" in2="BackgroundImageFix" result="effect1_dropShadow_2423_20898"/>
<feBlend mode="normal" in="SourceGraphic" in2="effect1_dropShadow_2423_20898" result="shape"/>
</filter>
<filter id="filter1_d_2423_20898" x="16" y="74" width="104" height="22" filterUnits="userSpaceOnUse" color-interpolation-filters="sRGB">
<feFlood flood-opacity="0" result="BackgroundImageFix"/>
<feColorMatrix in="SourceAlpha" type="matrix" values="0 0 0 0 0 0 0 0 0 0 0 0 0 0 0 0 0 0 127 0" result="hardAlpha"/>
<feOffset dy="2"/>
<feGaussianBlur stdDeviation="4"/>
<feComposite in2="hardAlpha" operator="out"/>
<feColorMatrix type="matrix" values="0 0 0 0 1 0 0 0 0 0.623529 0 0 0 0 0.160784 0 0 0 0.2 0"/>
<feBlend mode="normal" in2="BackgroundImageFix" result="effect1_dropShadow_2423_20898"/>
<feBlend mode="normal" in="SourceGraphic" in2="effect1_dropShadow_2423_20898" result="shape"/>
</filter>
<linearGradient id="paint0_linear_2423_20898" x1="68" y1="61" x2="68" y2="94.5" gradientUnits="userSpaceOnUse">
<stop stop-color="#FF9F29" stop-opacity="0.02"/>
<stop offset="1" stop-color="#FF9F29" stop-opacity="0.45"/>
</linearGradient>
</defs>
</svg>
