<svg width="375" height="424" viewBox="0 0 375 424" fill="none" xmlns="http://www.w3.org/2000/svg">
<circle opacity="0.2" cx="188" cy="212" r="211.5" stroke="#2A3646"/>
<circle opacity="0.25" cx="188" cy="212" r="158.5" stroke="#2A3646"/>
<circle opacity="0.4" cx="188" cy="212" r="109.5" stroke="#2A3646"/>
<circle opacity="0.4" cx="188" cy="212" r="60" fill="#2A3646"/>
<path fill-rule="evenodd" clip-rule="evenodd" d="M188 188C185.333 188 182.824 188.651 180.616 189.801C180.303 189.954 179.944 189.979 179.614 189.87C179.283 189.761 179.009 189.528 178.848 189.22C178.687 188.911 178.653 188.552 178.753 188.22C178.854 187.887 179.08 187.606 179.384 187.437C182.044 186.051 185 185.329 188 185.333C192.114 185.333 195.922 186.667 199.009 188.924C199.152 189.027 199.273 189.157 199.365 189.307C199.458 189.456 199.519 189.623 199.547 189.797C199.574 189.971 199.567 190.148 199.526 190.319C199.485 190.49 199.41 190.651 199.306 190.793C199.202 190.936 199.071 191.056 198.921 191.147C198.77 191.238 198.603 191.298 198.429 191.325C198.255 191.351 198.078 191.342 197.907 191.3C197.736 191.257 197.576 191.181 197.434 191.076C194.697 189.072 191.392 187.994 188 188ZM200.842 192.283C200.98 192.175 201.138 192.095 201.307 192.048C201.476 192.001 201.652 191.988 201.826 192.01C202 192.031 202.168 192.086 202.32 192.172C202.473 192.259 202.607 192.374 202.714 192.512C204.19 194.399 205.288 196.553 205.948 198.856C206.033 199.192 205.985 199.548 205.812 199.849C205.639 200.15 205.356 200.372 205.022 200.467C204.689 200.563 204.331 200.524 204.026 200.36C203.72 200.196 203.49 199.92 203.385 199.589C202.819 197.616 201.877 195.771 200.612 194.155C200.504 194.017 200.424 193.859 200.378 193.69C200.331 193.521 200.318 193.345 200.339 193.171C200.361 192.997 200.416 192.829 200.502 192.677C200.589 192.524 200.704 192.39 200.842 192.283ZM174.61 192.912C174.753 193.013 174.875 193.141 174.968 193.29C175.062 193.438 175.125 193.603 175.155 193.775C175.184 193.948 175.18 194.125 175.141 194.295C175.102 194.466 175.03 194.628 174.929 194.771C173.018 197.468 171.994 200.694 172 204V220C172 220.354 171.859 220.693 171.609 220.943C171.359 221.193 171.02 221.333 170.666 221.333C170.313 221.333 169.974 221.193 169.724 220.943C169.473 220.693 169.333 220.354 169.333 220V204C169.333 199.991 170.6 196.273 172.752 193.229C172.956 192.941 173.267 192.745 173.615 192.686C173.964 192.626 174.322 192.708 174.61 192.912ZM205.333 202.667C205.687 202.667 206.026 202.807 206.276 203.057C206.526 203.307 206.666 203.646 206.666 204V220C206.672 224.358 205.148 228.58 202.358 231.929C202.132 232.201 201.807 232.372 201.455 232.404C201.102 232.437 200.752 232.328 200.48 232.101C200.208 231.875 200.037 231.55 200.005 231.198C199.972 230.845 200.081 230.495 200.308 230.223C202.698 227.353 204.005 223.735 204 220V204.001C204 203.648 204.14 203.309 204.39 203.059C204.64 202.808 204.979 202.668 205.333 202.668V202.667ZM173.202 229.129C173.344 229.026 173.504 228.952 173.675 228.91C173.845 228.869 174.022 228.862 174.195 228.889C174.368 228.916 174.534 228.977 174.684 229.068C174.833 229.16 174.963 229.28 175.066 229.421C176.996 232.069 179.69 234.061 182.786 235.132C184.464 235.709 186.226 236.002 188 236C188.353 236 188.692 236.14 188.942 236.391C189.193 236.641 189.333 236.98 189.333 237.333C189.333 237.687 189.193 238.026 188.942 238.276C188.692 238.526 188.353 238.667 188 238.667C185.93 238.669 183.874 238.326 181.917 237.653C178.306 236.405 175.163 234.081 172.912 230.993C172.808 230.852 172.734 230.691 172.692 230.521C172.651 230.351 172.644 230.174 172.671 230.001C172.698 229.828 172.759 229.662 172.85 229.512C172.941 229.363 173.061 229.233 173.202 229.129ZM198.369 233.956C198.558 234.255 198.62 234.617 198.542 234.961C198.464 235.306 198.252 235.606 197.953 235.795C196.215 236.893 194.307 237.695 192.306 238.168C192.136 238.208 191.959 238.215 191.786 238.187C191.613 238.159 191.448 238.097 191.299 238.005C191.15 237.913 191.02 237.792 190.918 237.65C190.815 237.508 190.742 237.347 190.702 237.177C190.661 237.006 190.655 236.829 190.683 236.657C190.711 236.484 190.773 236.318 190.865 236.169C190.957 236.02 191.078 235.891 191.22 235.788C191.362 235.686 191.523 235.612 191.693 235.572C193.407 235.167 195.042 234.48 196.53 233.539C196.829 233.35 197.191 233.288 197.536 233.366C197.881 233.444 198.18 233.656 198.369 233.955V233.956ZM174.666 204.313C174.666 197.02 181.352 192 188 192C194.648 192 201.333 197.02 201.333 204.313V218.059C201.333 219.229 201.106 220.476 200.466 221.475C199.781 222.544 198.665 223.244 197.186 223.244C195.742 223.244 194.568 222.577 193.789 221.571C193.03 220.592 192.666 219.327 192.666 218.059V205.649C192.67 204.372 192.175 203.144 191.288 202.225C190.861 201.784 190.35 201.433 189.785 201.193C189.221 200.953 188.613 200.828 188 200.827C186.773 200.827 185.59 201.325 184.712 202.227C183.824 203.145 183.329 204.373 183.333 205.651V221.139C183.333 224.699 185.114 227.992 189.104 229.412C189.434 229.533 189.703 229.779 189.852 230.098C190.002 230.416 190.019 230.78 189.901 231.111C189.783 231.443 189.539 231.714 189.222 231.866C188.906 232.018 188.541 232.039 188.209 231.924C183.009 230.073 180.666 225.663 180.666 221.137V205.651C180.663 203.678 181.429 201.782 182.802 200.365C183.477 199.669 184.285 199.115 185.178 198.736C186.07 198.358 187.03 198.162 188 198.16C189.956 198.16 191.825 198.957 193.197 200.365C194.57 201.782 195.337 203.678 195.333 205.651V218.06C195.333 218.844 195.562 219.505 195.897 219.94C196.212 220.347 196.63 220.579 197.188 220.579C197.71 220.579 198.001 220.379 198.221 220.036C198.488 219.623 198.666 218.943 198.666 218.06V204.313C198.666 198.832 193.537 194.667 188 194.667C182.462 194.667 177.333 198.831 177.333 204.313V221.045C177.333 222.463 177.545 223.876 177.953 225.059C178.369 226.26 178.944 227.105 179.584 227.559C179.726 227.66 179.848 227.789 179.941 227.937C180.034 228.085 180.097 228.25 180.126 228.423C180.156 228.596 180.151 228.772 180.112 228.943C180.073 229.114 180 229.275 179.899 229.418C179.798 229.561 179.669 229.682 179.521 229.775C179.373 229.868 179.207 229.931 179.035 229.961C178.862 229.99 178.685 229.985 178.515 229.946C178.344 229.907 178.182 229.835 178.04 229.733C176.778 228.84 175.948 227.424 175.432 225.931C174.91 224.42 174.665 222.705 174.665 221.044V204.315L174.666 204.313Z" fill="#FF9F29"/>
<path fill-rule="evenodd" clip-rule="evenodd" d="M187.999 204C188.353 204 188.692 204.14 188.942 204.391C189.192 204.641 189.333 204.98 189.333 205.333V218.383C189.333 221.393 190.063 223.404 191.29 224.667C192.509 225.923 194.437 226.667 197.333 226.667C197.686 226.667 198.025 226.807 198.275 227.057C198.526 227.307 198.666 227.646 198.666 228C198.666 228.354 198.526 228.693 198.275 228.943C198.025 229.193 197.686 229.333 197.333 229.333C194.006 229.333 191.267 228.473 189.375 226.524C187.493 224.583 186.666 221.784 186.666 218.383V205.333C186.666 204.98 186.806 204.641 187.057 204.391C187.307 204.14 187.646 204 187.999 204Z" fill="#FF9F29"/>
<circle cx="259" cy="412" r="4" fill="#FF8092"/>
<circle cx="259" cy="412" r="5.5" stroke="#FF8092" stroke-opacity="0.15" stroke-width="3"/>
<circle cx="47" cy="284" r="4" fill="#FCD34D"/>
<circle cx="47" cy="284" r="5.5" stroke="#FCD34D" stroke-opacity="0.15" stroke-width="3"/>
<circle cx="50" cy="49" r="4" fill="#2A3646"/>
<circle cx="50" cy="49" r="5.5" stroke="#764AF1" stroke-opacity="0.15" stroke-width="3"/>
<circle cx="280" cy="151" r="4" fill="#3B82F6"/>
<circle cx="280" cy="151" r="5.5" stroke="#3B82F6" stroke-opacity="0.15" stroke-width="3"/>
</svg>
