<svg width="25" height="24" viewBox="0 0 25 24" fill="none" xmlns="http://www.w3.org/2000/svg">
<path d="M14.8932 3.19955L14.8935 3.19974L20.6534 7.22968C20.6534 7.2297 20.6535 7.22972 20.6535 7.22974C21.1227 7.55821 21.567 8.09677 21.8944 8.72395C22.2218 9.35117 22.4101 10.0243 22.4101 10.6001V17.3801C22.4101 19.6539 20.564 21.5001 18.2901 21.5001H7.51014C5.23768 21.5001 3.39014 19.6453 3.39014 17.3701V10.4701C3.39014 9.93562 3.56052 9.29655 3.85871 8.69092C4.15676 8.08558 4.56121 7.55694 4.98765 7.22431L4.98776 7.22423L9.99638 3.3153C9.9966 3.31513 9.99682 3.31496 9.99704 3.31479C11.3339 2.2795 13.5029 2.22547 14.8932 3.19955ZM12.9001 19.2501C13.5863 19.2501 14.1501 18.6862 14.1501 18.0001V15.0001C14.1501 14.3139 13.5863 13.7501 12.9001 13.7501C12.214 13.7501 11.6501 14.3139 11.6501 15.0001V18.0001C11.6501 18.6862 12.214 19.2501 12.9001 19.2501Z" fill="white" stroke="white"/>
</svg>
