<svg width="80" height="80" viewBox="0 0 80 80" fill="none" xmlns="http://www.w3.org/2000/svg">
<circle cx="40" cy="40" r="40" fill="#FF9F29"/>
<circle opacity="0.85" cx="40.0002" cy="40" r="32.8571" fill="#FFB254"/>
<path d="M40.7313 55.0456C42.838 55.0456 44.678 54.6723 46.2513 53.9256C47.8513 53.1523 49.1046 52.099 50.0113 50.7656C50.918 49.4056 51.3713 47.859 51.3713 46.1256C51.3713 42.1256 48.9846 39.3523 44.2113 37.8056L38.4913 35.9656C36.678 35.3523 35.7713 34.339 35.7713 32.9256C35.7713 31.9656 36.158 31.1923 36.9313 30.6056C37.7046 29.9923 38.718 29.6856 39.9713 29.6856C41.4113 29.6856 42.6913 30.0856 43.8113 30.8856C44.9313 31.659 45.7713 32.739 46.3313 34.1256L51.3713 31.8456C50.5446 29.499 49.1046 27.659 47.0513 26.3256C45.0246 24.9656 42.6646 24.2856 39.9713 24.2856C37.9446 24.2856 36.1446 24.659 34.5713 25.4056C33.0246 26.1523 31.8113 27.1923 30.9313 28.5256C30.078 29.859 29.6513 31.4056 29.6513 33.1656C29.6513 37.219 32.038 40.0323 36.8113 41.6056L42.6513 43.5256C44.4113 44.1123 45.2913 45.099 45.2913 46.4856C45.2913 47.4456 44.9046 48.219 44.1313 48.8056C43.3846 49.3656 42.3846 49.6456 41.1313 49.6456C39.5313 49.6456 38.0646 49.179 36.7313 48.2456C35.4246 47.3123 34.398 46.0323 33.6513 44.4056L28.5713 46.6856C29.158 48.3923 30.038 49.8723 31.2113 51.1256C32.4113 52.379 33.8246 53.3523 35.4513 54.0456C37.1046 54.7123 38.8646 55.0456 40.7313 55.0456Z" fill="white"/>
</svg>
