<svg width="22" height="22" viewBox="0 0 22 22" fill="none" xmlns="http://www.w3.org/2000/svg">
<path d="M21.0834 16.4171C21.1017 17.1046 20.9184 17.7555 20.5884 18.3146C20.4051 18.6446 20.1576 18.9472 19.8826 19.1947C19.2501 19.7813 18.4159 20.1388 17.4901 20.1663C16.1517 20.1938 14.9692 19.5063 14.3184 18.4522C13.9701 17.9113 13.7592 17.2605 13.7501 16.573C13.7226 15.418 14.2359 14.373 15.0609 13.6855C15.6842 13.1721 16.4726 12.8513 17.3342 12.833C19.3601 12.7872 21.0376 14.3913 21.0834 16.4171Z" stroke="#FF9F29" stroke-width="1.5" stroke-miterlimit="10" stroke-linecap="round" stroke-linejoin="round"/>
<path d="M15.9868 16.5274L16.9127 17.4073L18.8285 15.5557" stroke="#FF9F29" stroke-width="1.5" stroke-linecap="round" stroke-linejoin="round"/>
<path d="M2.90576 6.81934L10.9999 11.5035L19.0391 6.84681" stroke="#FF9F29" stroke-width="1.5" stroke-linecap="round" stroke-linejoin="round"/>
<path d="M11 19.8083V11.4941" stroke="#FF9F29" stroke-width="1.5" stroke-linecap="round" stroke-linejoin="round"/>
<path d="M19.8092 8.40551V13.5939C19.8092 13.6397 19.8092 13.6763 19.8001 13.7222C19.1584 13.163 18.3334 12.833 17.4167 12.833C16.5551 12.833 15.7576 13.1355 15.1251 13.6397C14.2817 14.3089 13.7501 15.3447 13.7501 16.4997C13.7501 17.1872 13.9426 17.838 14.2817 18.388C14.3642 18.5347 14.4651 18.6722 14.5751 18.8005L12.8976 19.7264C11.8526 20.313 10.1476 20.313 9.10256 19.7264L4.20757 17.013C3.0984 16.3989 2.19092 14.8589 2.19092 13.5939V8.40551C2.19092 7.14051 3.0984 5.60053 4.20757 4.98636L9.10256 2.27301C10.1476 1.68634 11.8526 1.68634 12.8976 2.27301L17.7926 4.98636C18.9017 5.60053 19.8092 7.14051 19.8092 8.40551Z" stroke="#FF9F29" stroke-width="1.5" stroke-linecap="round" stroke-linejoin="round"/>
</svg>
