<svg width="159" height="156" viewBox="0 0 159 156" fill="none" xmlns="http://www.w3.org/2000/svg">
<rect x="8" y="8" width="120" height="120" rx="60" fill="#1B2537"/>
<circle cx="3" cy="35" r="2" fill="#FFD9A9"/>
<circle cx="132" cy="29" r="2" fill="#2DD4BF"/>
<circle cx="143.5" cy="38.5" r="3.5" fill="#2A3646"/>
<circle cx="2" cy="127" r="2" fill="#FF8092"/>
<g filter="url(#filter0_d_2435_24660)">
<rect x="32" y="8" width="72" height="120" rx="8" fill="#2A3646"/>
<rect x="32" y="8" width="72" height="120" rx="8" stroke="#475569" stroke-width="4"/>
</g>
<g filter="url(#filter1_d_2435_24660)">
<circle cx="110" cy="101" r="20" fill="#475569"/>
</g>
<path d="M68 78H68.0167M63.2867 73.2867C64.5369 72.0369 66.2322 71.3348 68 71.3348C69.7678 71.3348 71.4631 72.0369 72.7133 73.2867M71.95 65.2633C74.0211 65.9101 75.9021 67.0546 77.4283 68.5967M64.9333 58.2333C68.0418 57.7513 71.2202 58.0094 74.2102 58.9864C77.2002 59.9635 79.9176 61.6321 82.1417 63.8567M53 53L83 83M58.5717 68.5717C60.3391 66.7993 62.5716 65.5628 65.0117 65.005L58.5717 68.5717ZM53.8583 63.8583C55.5641 62.149 57.5652 60.7628 59.765 59.7667L53.8583 63.8583Z" stroke="#FF9F29" stroke-width="3" stroke-linecap="round" stroke-linejoin="round"/>
<path d="M104.09 102.28H107.18V109.48C107.18 111.16 108.09 111.5 109.2 110.24L116.77 101.64C117.7 100.59 117.31 99.7199 115.9 99.7199H112.81V92.5199C112.81 90.8399 111.9 90.4999 110.79 91.7599L103.22 100.36C102.3 101.42 102.69 102.28 104.09 102.28Z" stroke="white" stroke-width="1.5" stroke-miterlimit="10" stroke-linecap="round" stroke-linejoin="round"/>
<defs>
<filter id="filter0_d_2435_24660" x="22" y="0" width="108" height="156" filterUnits="userSpaceOnUse" color-interpolation-filters="sRGB">
<feFlood flood-opacity="0" result="BackgroundImageFix"/>
<feColorMatrix in="SourceAlpha" type="matrix" values="0 0 0 0 0 0 0 0 0 0 0 0 0 0 0 0 0 0 127 0" result="hardAlpha"/>
<feOffset dx="8" dy="10"/>
<feGaussianBlur stdDeviation="8"/>
<feComposite in2="hardAlpha" operator="out"/>
<feColorMatrix type="matrix" values="0 0 0 0 0.0588235 0 0 0 0 0.0901962 0 0 0 0 0.164706 0 0 0 0.08 0"/>
<feBlend mode="normal" in2="BackgroundImageFix" result="effect1_dropShadow_2435_24660"/>
<feBlend mode="normal" in="SourceGraphic" in2="effect1_dropShadow_2435_24660" result="shape"/>
</filter>
<filter id="filter1_d_2435_24660" x="65.8" y="59" width="92.8" height="92.8" filterUnits="userSpaceOnUse" color-interpolation-filters="sRGB">
<feFlood flood-opacity="0" result="BackgroundImageFix"/>
<feColorMatrix in="SourceAlpha" type="matrix" values="0 0 0 0 0 0 0 0 0 0 0 0 0 0 0 0 0 0 127 0" result="hardAlpha"/>
<feOffset dx="2.2" dy="4.4"/>
<feGaussianBlur stdDeviation="13.2"/>
<feComposite in2="hardAlpha" operator="out"/>
<feColorMatrix type="matrix" values="0 0 0 0 0.0588235 0 0 0 0 0.0901962 0 0 0 0 0.164706 0 0 0 0.12 0"/>
<feBlend mode="normal" in2="BackgroundImageFix" result="effect1_dropShadow_2435_24660"/>
<feBlend mode="normal" in="SourceGraphic" in2="effect1_dropShadow_2435_24660" result="shape"/>
</filter>
</defs>
</svg>
