<svg width="162" height="156" viewBox="0 0 162 156" fill="none" xmlns="http://www.w3.org/2000/svg">
<rect x="8" y="8" width="120" height="120" rx="60" fill="#1B2537"/>
<circle cx="3" cy="35" r="2" fill="#0062FF"/>
<circle cx="132" cy="29" r="2" fill="#2A3646"/>
<circle cx="143.5" cy="38.5" r="3.5" fill="#22C55E"/>
<circle cx="2" cy="127" r="2" fill="#FFD9A9"/>
<g filter="url(#filter0_d_2435_24632)">
<rect x="32" y="8" width="72" height="120" rx="8" fill="#2A3646"/>
<rect x="32" y="8" width="72" height="120" rx="8" stroke="#475569" stroke-width="4"/>
</g>
<rect x="40" y="20" width="56" height="46" rx="4" fill="#64748B"/>
<rect x="40" y="73" width="41" height="5" rx="2.5" fill="#64748B"/>
<rect x="40" y="83" width="49" height="5" rx="2.5" fill="#64748B"/>
<rect x="40" y="93" width="18" height="5" rx="2.5" fill="#64748B"/>
<rect x="60" y="93" width="24" height="5" rx="2.5" fill="#64748B"/>
<path d="M70.5 39.666H70.5083" stroke="#CBD5E1" stroke-width="1.5" stroke-linecap="round" stroke-linejoin="round"/>
<path d="M72.1673 36.333H63.834C62.4533 36.333 61.334 37.4523 61.334 38.833V47.1663C61.334 48.5471 62.4533 49.6663 63.834 49.6663H72.1673C73.548 49.6663 74.6673 48.5471 74.6673 47.1663V38.833C74.6673 37.4523 73.548 36.333 72.1673 36.333Z" stroke="#CBD5E1" stroke-width="1.5" stroke-linecap="round" stroke-linejoin="round"/>
<path d="M61.334 45.5L64.6673 42.1666C65.0474 41.8009 65.4785 41.6084 65.9173 41.6084C66.3562 41.6084 66.7873 41.8009 67.1673 42.1666L71.334 46.3333" stroke="#CBD5E1" stroke-width="1.5" stroke-linecap="round" stroke-linejoin="round"/>
<path d="M69.668 44.666L70.5013 43.8326C70.8814 43.4669 71.3125 43.2744 71.7513 43.2744C72.1901 43.2744 72.6213 43.4669 73.0013 43.8326L74.668 45.4993" stroke="#CBD5E1" stroke-width="1.5" stroke-linecap="round" stroke-linejoin="round"/>
<g filter="url(#filter1_d_2435_24632)">
<circle cx="111" cy="98" r="20" fill="#FF9F29"/>
<circle cx="111" cy="98" r="20" stroke="#1B2537" stroke-width="3"/>
</g>
<path fill-rule="evenodd" clip-rule="evenodd" d="M102.667 96.8919C102.667 92.9017 105.867 89.667 109.815 89.667C111.711 89.667 113.529 90.4282 114.869 91.7831C116.21 93.1381 116.963 94.9758 116.963 96.8919C116.963 100.882 113.763 104.117 109.815 104.117C105.867 104.117 102.667 100.882 102.667 96.8919ZM116.845 102.712L118.974 104.431H119.011C119.441 104.866 119.441 105.572 119.011 106.007C118.58 106.442 117.882 106.442 117.451 106.007L115.684 103.982C115.517 103.814 115.423 103.586 115.423 103.347C115.423 103.109 115.517 102.88 115.684 102.712C116.006 102.392 116.523 102.392 116.845 102.712Z" fill="white"/>
<defs>
<filter id="filter0_d_2435_24632" x="22" y="0" width="108" height="156" filterUnits="userSpaceOnUse" color-interpolation-filters="sRGB">
<feFlood flood-opacity="0" result="BackgroundImageFix"/>
<feColorMatrix in="SourceAlpha" type="matrix" values="0 0 0 0 0 0 0 0 0 0 0 0 0 0 0 0 0 0 127 0" result="hardAlpha"/>
<feOffset dx="8" dy="10"/>
<feGaussianBlur stdDeviation="8"/>
<feComposite in2="hardAlpha" operator="out"/>
<feColorMatrix type="matrix" values="0 0 0 0 0.0588235 0 0 0 0 0.0901962 0 0 0 0 0.164706 0 0 0 0.08 0"/>
<feBlend mode="normal" in2="BackgroundImageFix" result="effect1_dropShadow_2435_24632"/>
<feBlend mode="normal" in="SourceGraphic" in2="effect1_dropShadow_2435_24632" result="shape"/>
</filter>
<filter id="filter1_d_2435_24632" x="65.3" y="54.5" width="95.8" height="95.8" filterUnits="userSpaceOnUse" color-interpolation-filters="sRGB">
<feFlood flood-opacity="0" result="BackgroundImageFix"/>
<feColorMatrix in="SourceAlpha" type="matrix" values="0 0 0 0 0 0 0 0 0 0 0 0 0 0 0 0 0 0 127 0" result="hardAlpha"/>
<feOffset dx="2.2" dy="4.4"/>
<feGaussianBlur stdDeviation="13.2"/>
<feComposite in2="hardAlpha" operator="out"/>
<feColorMatrix type="matrix" values="0 0 0 0 0.0588235 0 0 0 0 0.0901962 0 0 0 0 0.164706 0 0 0 0.08 0"/>
<feBlend mode="normal" in2="BackgroundImageFix" result="effect1_dropShadow_2435_24632"/>
<feBlend mode="normal" in="SourceGraphic" in2="effect1_dropShadow_2435_24632" result="shape"/>
</filter>
</defs>
</svg>
