<svg width="151" height="144" viewBox="0 0 151 144" fill="none" xmlns="http://www.w3.org/2000/svg">
<rect x="8" y="14" width="120" height="120" rx="60" fill="#1B2537"/>
<circle cx="3" cy="41" r="2" fill="#E2E8F0"/>
<circle cx="132" cy="35" r="2" fill="#E2E8F0"/>
<circle cx="143.5" cy="44.5" r="3.5" fill="#E2E8F0"/>
<circle cx="2" cy="133" r="2" fill="#E2E8F0"/>
<g filter="url(#filter0_d_2435_24641)">
<path d="M119.091 44.1387H77.792C77.7894 44.1387 77.7868 44.1413 77.7842 44.1413C77.7816 44.1439 77.7816 44.1439 77.779 44.1465C77.779 44.1465 77.7764 44.1491 77.7764 44.1517C77.7764 44.1543 77.7764 44.1569 77.7764 44.1595L79.4345 49.83L96.7013 86.2484L118.559 116.441C118.562 116.444 118.562 116.444 118.562 116.446C118.564 116.446 118.564 116.446 118.567 116.446H122.592C122.595 116.446 122.598 116.446 122.6 116.441C122.603 116.441 122.603 116.439 122.603 116.436V47.6478C122.603 46.7197 122.233 45.8255 121.573 45.1659C120.913 44.5089 120.022 44.1387 119.091 44.1387Z" fill="#475569"/>
<path d="M72.072 49.83L69.3137 44.1491C69.3137 44.1465 69.3111 44.1439 69.3085 44.1439C69.3059 44.1413 69.3033 44.1387 69.3007 44.1387H16.9398C16.4784 44.1387 16.0221 44.2299 15.5972 44.4072C15.1696 44.5845 14.7837 44.84 14.4579 45.1659C14.132 45.4944 13.8739 45.8802 13.6966 46.3052C13.5219 46.7327 13.4307 47.189 13.4307 47.6478V116.444H17.469L49.7605 79.0476L72.072 49.83Z" fill="#475569"/>
<path d="M118.554 49.8291H79.4341L80.112 52.3841C80.1146 52.3867 80.1146 52.3893 80.112 52.3919C80.112 52.3971 80.1093 52.3971 80.1067 52.3997L73.0181 57.3688C73.0154 57.3714 73.0128 57.3714 73.0102 57.3766C73.0102 57.3792 73.0102 57.3819 73.0102 57.3845L74.5093 64.348C74.5093 64.3506 74.5093 64.3558 74.5093 64.3584C74.5067 64.361 74.5041 64.3636 74.5015 64.3636C74.4989 64.3663 74.4963 64.3662 74.4937 64.3662C74.4885 64.3662 74.4859 64.3636 74.4833 64.361L68.6981 57.3818C68.6955 57.3818 68.6955 57.3766 68.6955 57.374C68.6955 57.3714 68.6955 57.3688 68.6981 57.3662L73.0024 51.5785C73.005 51.5759 73.005 51.5733 73.005 51.5706C73.0076 51.568 73.005 51.5654 73.005 51.5628L72.0717 49.8291H17.4792C17.4766 49.8291 17.474 49.8291 17.4714 49.8317C17.4714 49.8343 17.4688 49.8369 17.4688 49.8369V115.838C17.4688 115.841 17.4714 115.843 17.4714 115.846C17.474 115.846 17.4766 115.849 17.4792 115.849H118.554C118.556 115.849 118.559 115.846 118.559 115.846C118.561 115.843 118.561 115.841 118.561 115.838V49.8369C118.561 49.8369 118.561 49.8343 118.559 49.8317C118.559 49.8291 118.556 49.8291 118.554 49.8291Z" fill="#64748B"/>
<path d="M17.4688 109.132C34.1959 109.184 50.9282 109.617 67.6579 109.619C84.6274 109.619 101.594 109.184 118.561 109.132C118.634 106.3 118.666 103.401 118.658 100.435C118.65 98.1898 118.619 95.9816 118.561 93.8125C84.8647 98.8598 51.168 104.087 17.4688 109.132Z" fill="#64748B"/>
<path d="M120.809 109.13H15.222C14.5337 109.13 13.8559 109.265 13.2224 109.529C12.5888 109.789 12.0153 110.175 11.5304 110.66C11.0454 111.145 10.6596 111.719 10.3963 112.352C10.1356 112.986 10 113.666 10 114.352V117.003C10 117.009 10 117.011 10.0052 117.014C10.0078 117.016 10.0104 117.016 10.013 117.016H126.016C126.021 117.016 126.023 117.016 126.026 117.014C126.029 117.011 126.031 117.009 126.031 117.003V114.352C126.031 112.968 125.481 111.638 124.501 110.66C123.523 109.683 122.196 109.13 120.809 109.13Z" fill="#475569"/>
</g>
<path d="M53.4605 74.181L58.0802 69.5613C58.8519 68.7896 58.9093 67.5199 58.1506 66.7326C57.9681 66.5422 57.7465 66.391 57.5067 66.2868C57.2616 66.1825 57.0035 66.1277 56.7402 66.1251C56.4769 66.1225 56.2135 66.172 55.9685 66.2737C55.726 66.3728 55.5044 66.5214 55.3167 66.7065L50.65 71.3732C50.6474 71.3758 50.6448 71.3784 50.6396 71.3784C50.637 71.3784 50.6318 71.3758 50.6291 71.3732L45.9651 66.7065C45.5896 66.3441 45.0865 66.1434 44.5677 66.1486C44.0462 66.1512 43.5457 66.3598 43.1781 66.7274C42.8079 67.0976 42.5993 67.5955 42.5967 68.1169C42.5915 68.6383 42.7922 69.1415 43.1572 69.5143L47.8213 74.181C47.8239 74.181 47.8265 74.1836 47.8265 74.1862C47.8265 74.1888 47.8265 74.1888 47.8265 74.1914C47.8265 74.194 47.8265 74.1967 47.8265 74.1967C47.8265 74.1993 47.8239 74.2019 47.8213 74.2019L43.1572 78.8686C42.787 79.2414 42.5811 79.7445 42.5811 80.2712C42.5837 80.7952 42.7922 81.2984 43.165 81.6712C43.5352 82.0388 44.0384 82.25 44.565 82.25C45.0891 82.2526 45.5922 82.0466 45.9651 81.6764L50.6318 77.0097C50.6318 77.0097 50.6344 77.0071 50.637 77.0071C50.6396 77.0071 50.6396 77.0071 50.6422 77.0071C50.6448 77.0071 50.6448 77.0071 50.6474 77.0071C50.65 77.0071 50.6526 77.0097 50.6526 77.0097L55.3193 81.6764C55.6921 82.0466 56.1953 82.2526 56.7193 82.25C57.246 82.25 57.7491 82.0388 58.1193 81.6712C58.4921 81.2984 58.7007 80.7952 58.7033 80.2712C58.7033 79.7445 58.4974 79.2414 58.1298 78.8686L53.4605 74.2019C53.4578 74.2019 53.4552 74.1993 53.4552 74.1967C53.4552 74.1967 53.4552 74.194 53.4552 74.1914C53.4552 74.1888 53.4552 74.1888 53.4552 74.1862C53.4552 74.1836 53.4578 74.181 53.4605 74.181Z" fill="white"/>
<path d="M86.8026 74.181L91.4223 69.5613C92.1966 68.7896 92.254 67.5199 91.4927 66.7326C91.3102 66.5422 91.0912 66.391 90.8488 66.2868C90.6063 66.1825 90.3456 66.1277 90.0823 66.1251C89.819 66.1225 89.5557 66.172 89.3132 66.2737C89.0681 66.3728 88.8465 66.5214 88.6588 66.7065L83.9947 71.3732C83.9921 71.3758 83.9921 71.3758 83.9895 71.3784C83.9869 71.3784 83.9843 71.3784 83.9843 71.3784C83.9817 71.3784 83.9791 71.3784 83.9791 71.3784C83.9765 71.3758 83.9739 71.3758 83.9739 71.3732L79.3072 66.7065C79.1221 66.524 78.9031 66.378 78.6632 66.2763C78.4234 66.1772 78.1653 66.1251 77.9046 66.1251C77.6439 66.1251 77.3857 66.1772 77.1433 66.2763C76.9034 66.378 76.6844 66.524 76.4993 66.7065C76.3142 66.8916 76.1682 67.1106 76.0692 67.3504C75.9675 67.5929 75.918 67.851 75.918 68.1117C75.918 68.3724 75.9675 68.6305 76.0692 68.8704C76.1682 69.1128 76.3142 69.3318 76.4993 69.5143L81.166 74.181C81.166 74.1836 81.1686 74.1862 81.1686 74.1862C81.1686 74.1888 81.1686 74.1888 81.1686 74.1914C81.1686 74.194 81.1686 74.1967 81.1686 74.1993L81.166 74.2019L76.4993 78.8686C76.1291 79.2414 75.9232 79.7472 75.9258 80.2712C75.9284 80.7952 76.137 81.2984 76.5072 81.6712C76.88 82.0414 77.3805 82.25 77.9072 82.25C78.4312 82.2526 78.937 82.0466 79.3098 81.6764L83.9739 77.0097C83.9791 77.0071 83.9817 77.0071 83.9843 77.0071C83.9895 77.0071 83.9921 77.0071 83.9947 77.0097L88.6614 81.6764C88.8465 81.8615 89.0655 82.0075 89.3054 82.1066C89.5478 82.2083 89.8059 82.2578 90.0666 82.2578C90.3274 82.2604 90.5855 82.2083 90.8253 82.1066C91.0678 82.0075 91.2868 81.8615 91.4693 81.6764C91.657 81.4939 91.803 81.2749 91.9021 81.0325C92.0011 80.7926 92.0533 80.5345 92.0533 80.2738C92.0533 80.0131 92.0011 79.755 91.9021 79.5125C91.803 79.2727 91.657 79.0537 91.4719 78.8686L86.8026 74.2019C86.8 74.2019 86.8 74.1993 86.8 74.1993C86.7974 74.1967 86.7974 74.194 86.7974 74.1914C86.7974 74.1888 86.7974 74.1888 86.8 74.1862C86.8 74.1836 86.8 74.181 86.8026 74.181Z" fill="white"/>
<path d="M81.0486 93.1206C80.2613 90.2607 78.5562 87.737 76.1968 85.9355C73.8348 84.1366 70.9514 83.1589 67.9819 83.1563C65.0307 83.1459 62.1576 84.1105 59.8087 85.899C57.5092 87.6458 55.825 90.0756 54.996 92.8417C54.9177 93.0998 54.8943 93.3683 54.9204 93.6368C54.949 93.9028 55.0299 94.1635 55.1576 94.4007C55.2853 94.6354 55.46 94.8439 55.6686 95.0134C55.8772 95.1829 56.117 95.3106 56.3751 95.3862C56.6332 95.4644 56.9044 95.4905 57.1703 95.4618C57.4388 95.4331 57.6995 95.3523 57.9342 95.2246C58.1714 95.0968 58.3826 94.9221 58.552 94.7136C58.7215 94.5024 58.8466 94.2626 58.9222 94.0045C59.5088 92.0387 60.7211 90.3128 62.374 89.0953C64.0243 87.8752 66.0318 87.2286 68.0836 87.2521C70.1379 87.2729 72.1298 87.9638 73.754 89.2178C75.3808 90.4718 76.5566 92.2212 77.1015 94.2C77.2188 94.6328 77.4769 95.0134 77.8341 95.2871C78.1887 95.5609 78.6266 95.7095 79.0751 95.7095C79.2576 95.7095 79.4401 95.6834 79.6147 95.6365C80.1388 95.4931 80.5846 95.1463 80.8531 94.6745C81.1216 94.2052 81.192 93.6447 81.0486 93.1206Z" fill="white"/>
<path d="M29.6992 67.2034C29.6992 67.2008 29.6966 67.2008 29.694 67.1982C29.6914 67.1982 29.6888 67.1982 29.6888 67.1982C29.6862 67.1982 29.6836 67.1982 29.6836 67.1982C29.681 67.2008 29.6784 67.2008 29.6784 67.2034C29.4281 67.5059 24.9647 73.0016 25.5487 77.5093C26.164 82.2724 33.211 82.2724 33.8262 77.5093C34.4102 73.0042 29.9469 67.5059 29.6992 67.2034Z" fill="#2A3646"/>
<path d="M25.4232 45.6862L25.4206 45.6836C25.418 45.6836 25.4154 45.6836 25.4154 45.6836C25.4127 45.6836 25.4101 45.6836 25.4075 45.6836L25.4049 45.6862C25.1546 45.9912 20.6913 51.487 21.2753 55.9946C21.888 60.7552 28.9375 60.7552 29.5528 55.9946C30.1368 51.487 25.6735 45.9912 25.4232 45.6862Z" fill="#2A3646"/>
<path d="M37.1193 51.5658C37.1167 51.5632 37.1167 51.5631 37.1141 51.5631C37.1115 51.5605 37.1089 51.5605 37.1089 51.5605C37.1063 51.5605 37.1037 51.5605 37.1037 51.5631C37.0985 51.5631 37.0985 51.5632 37.0959 51.5658C36.8482 51.8682 32.3849 57.3639 32.9662 61.8716C33.5841 66.6348 40.6311 66.6348 41.2464 61.8716C41.8304 57.3639 37.367 51.8682 37.1193 51.5658Z" fill="#2A3646"/>
<path d="M41.1338 0H48.6605C48.6657 0 48.6683 2.54605e-06 48.6709 0.00260964C48.6735 0.00521673 48.6761 0.00782605 48.6761 0.0130402V17.4962C48.6761 17.5014 48.6761 17.504 48.6787 17.5066C48.6813 17.5118 48.6865 17.5118 48.6891 17.5118H52.9022C52.9074 17.5118 52.91 17.5144 52.9126 17.5171C52.9152 17.5197 52.9178 17.5223 52.9178 17.5275V24.0582C52.9178 24.0635 52.9152 24.0661 52.9126 24.0687C52.91 24.0713 52.9074 24.0739 52.9022 24.0739H48.6891C48.6865 24.0739 48.6813 24.0739 48.6787 24.0765C48.6761 24.0817 48.6761 24.0843 48.6761 24.0869V30.868C48.6761 30.8706 48.6735 30.8732 48.6709 30.8784C48.6683 30.881 48.6657 30.881 48.6605 30.881H40.7975C40.7949 30.881 40.7923 30.881 40.7896 30.881L40.787 30.8784C40.7844 30.8758 40.7844 30.8732 40.7844 30.8732C40.7818 30.8706 40.7818 30.868 40.7818 30.868V24.0869C40.7818 24.0843 40.7818 24.0817 40.7766 24.0765C40.774 24.0739 40.7714 24.0739 40.7662 24.0739H27.5274C27.5222 24.0739 27.5169 24.0713 27.5169 24.0687C27.5117 24.0661 27.5117 24.0635 27.5117 24.0582V16.6776C27.5117 16.675 27.5117 16.6724 27.5143 16.6697L41.1234 0.00260964C41.126 0.00260964 41.126 0 41.1286 0H41.1338ZM33.4011 17.6344C33.4011 17.637 33.3985 17.6396 33.3985 17.6422C33.3985 17.6448 33.3985 17.6474 33.4011 17.65C33.4011 17.6526 33.4038 17.6552 33.4064 17.6578C33.409 17.6578 33.4116 17.6578 33.4142 17.6578L37.8228 17.5118H40.7662C40.7714 17.5118 40.774 17.5118 40.7766 17.5066C40.7818 17.504 40.7818 17.5014 40.7818 17.4962V12.8269L40.8314 8.3792C40.8314 8.37398 40.8287 8.37138 40.8287 8.37138C40.8261 8.36877 40.8235 8.36617 40.8209 8.36617C40.8183 8.36356 40.8157 8.36356 40.8105 8.36617C40.8079 8.36617 40.8053 8.36616 40.8053 8.36877L33.4011 17.6344Z" fill="#FFB254"/>
<path d="M68.2636 35.4518C60.2233 35.4518 55.2881 28.2484 55.2881 19.3686C55.2881 10.4915 60.2702 3.28809 68.2636 3.28809C76.3508 3.28809 81.2365 10.4393 81.2365 19.5668C81.2365 28.3005 76.2048 35.4518 68.2636 35.4518ZM68.3105 29.14C71.7649 29.14 73.788 25.6361 73.788 19.4703C73.788 13.7973 72.1586 9.60246 68.2636 9.60246C64.4155 9.60246 62.7366 13.7973 62.7366 19.3217C62.7366 24.9452 64.4129 29.14 68.3105 29.14Z" fill="#FFB254"/>
<path d="M97.6683 7.85742H105.195C105.198 7.85742 105.203 7.86003 105.205 7.86263C105.208 7.86524 105.211 7.87046 105.211 7.87306V25.3562C105.211 25.3588 105.211 25.3614 105.211 25.3614C105.213 25.364 105.213 25.364 105.216 25.3667C105.216 25.3693 105.218 25.3693 105.218 25.3719C105.221 25.3719 105.221 25.3719 105.226 25.3719H109.439C109.442 25.3719 109.447 25.3719 109.45 25.3745C109.452 25.3797 109.452 25.3823 109.452 25.3849V31.9183C109.452 31.9209 109.452 31.9261 109.45 31.9287C109.447 31.9313 109.442 31.9313 109.439 31.9313H105.226C105.221 31.9313 105.221 31.9339 105.218 31.9339C105.218 31.9339 105.216 31.9339 105.216 31.9365C105.213 31.9391 105.213 31.9391 105.211 31.9417C105.211 31.9443 105.211 31.9443 105.211 31.947V38.7254C105.211 38.7306 105.208 38.7358 105.205 38.7358C105.203 38.7384 105.198 38.741 105.195 38.741H97.3346C97.3294 38.741 97.3268 38.7384 97.3242 38.7358C97.3215 38.7358 97.3189 38.7306 97.3189 38.7254V31.947C97.3189 31.9443 97.3163 31.9391 97.3137 31.9365C97.3111 31.9339 97.3085 31.9313 97.3033 31.9313H84.0619C84.0593 31.9313 84.054 31.9313 84.0514 31.9287C84.0488 31.9261 84.0488 31.9209 84.0488 31.9183V24.5376C84.0488 24.535 84.0488 24.5324 84.0514 24.5272L97.6579 7.86263C97.6605 7.86263 97.6605 7.86003 97.6631 7.86003C97.6657 7.86003 97.6683 7.85742 97.6683 7.85742ZM89.9383 25.4944C89.9383 25.497 89.9356 25.4996 89.9356 25.5022C89.9356 25.5048 89.9356 25.5074 89.9383 25.51C89.9383 25.5126 89.9409 25.5153 89.9435 25.5153C89.9461 25.5179 89.9487 25.5179 89.9513 25.5179L94.3599 25.3719H97.3033C97.3085 25.3719 97.3111 25.3693 97.3137 25.3667C97.3163 25.364 97.3189 25.3614 97.3189 25.3562V20.6843L97.3685 16.2392C97.3685 16.2366 97.3659 16.2314 97.3632 16.2288C97.3632 16.2262 97.3607 16.2262 97.358 16.2236C97.3554 16.2236 97.3502 16.2236 97.3476 16.2236C97.345 16.2262 97.3424 16.2262 97.3398 16.2288L89.9383 25.4944Z" fill="#FFB254"/>
<path d="M125.405 94.0318L114.791 78.092C114.453 77.5836 113.994 77.1665 113.454 76.8771C112.917 76.5877 112.315 76.4365 111.705 76.4365C111.092 76.4365 110.49 76.5877 109.953 76.8771C109.413 77.1665 108.954 77.5836 108.615 78.092L98.0018 94.0318C97.6316 94.5897 97.4178 95.2389 97.3839 95.9089C97.3526 96.5789 97.5038 97.2463 97.8193 97.8381C98.1374 98.4299 98.6093 98.9227 99.1854 99.2668C99.7616 99.6136 100.419 99.7961 101.089 99.7961H122.313C122.986 99.7961 123.643 99.6136 124.219 99.2694C124.795 98.9253 125.267 98.4299 125.585 97.8407C125.903 97.2463 126.054 96.5815 126.02 95.9115C125.989 95.2415 125.775 94.5897 125.405 94.0318Z" fill="#2A3646"/>
<path d="M113.702 81.0371H109.711C109.701 81.0371 109.695 81.0449 109.695 81.0528V91.4524C109.695 91.4603 109.701 91.4681 109.711 91.4681H113.702C113.71 91.4681 113.718 91.4603 113.718 91.4524V81.0528C113.718 81.0449 113.71 81.0371 113.702 81.0371Z" fill="#CBD5E1"/>
<path d="M111.705 97.5338C113.133 97.5338 114.294 96.3736 114.294 94.9424C114.294 93.5111 113.133 92.3535 111.705 92.3535C110.273 92.3535 109.113 93.5111 109.113 94.9424C109.113 96.3736 110.273 97.5338 111.705 97.5338Z" fill="#CBD5E1"/>
<defs>
<filter id="filter0_d_2435_24641" x="2" y="38.1387" width="148.031" height="104.878" filterUnits="userSpaceOnUse" color-interpolation-filters="sRGB">
<feFlood flood-opacity="0" result="BackgroundImageFix"/>
<feColorMatrix in="SourceAlpha" type="matrix" values="0 0 0 0 0 0 0 0 0 0 0 0 0 0 0 0 0 0 127 0" result="hardAlpha"/>
<feOffset dx="8" dy="10"/>
<feGaussianBlur stdDeviation="8"/>
<feComposite in2="hardAlpha" operator="out"/>
<feColorMatrix type="matrix" values="0 0 0 0 0.0588235 0 0 0 0 0.0901962 0 0 0 0 0.164706 0 0 0 0.08 0"/>
<feBlend mode="normal" in2="BackgroundImageFix" result="effect1_dropShadow_2435_24641"/>
<feBlend mode="normal" in="SourceGraphic" in2="effect1_dropShadow_2435_24641" result="shape"/>
</filter>
</defs>
</svg>
