<svg width="24" height="24" viewBox="0 0 24 24" fill="none" xmlns="http://www.w3.org/2000/svg">
<path d="M8.99951 4H4.99951C4.44723 4 3.99951 4.44772 3.99951 5V9C3.99951 9.55228 4.44723 10 4.99951 10H8.99951C9.5518 10 9.99951 9.55228 9.99951 9V5C9.99951 4.44772 9.5518 4 8.99951 4Z" stroke="#FF9F29" stroke-width="1.5" stroke-linecap="round" stroke-linejoin="round"/>
<path d="M18.9995 4H14.9995C14.4472 4 13.9995 4.44772 13.9995 5V9C13.9995 9.55228 14.4472 10 14.9995 10H18.9995C19.5518 10 19.9995 9.55228 19.9995 9V5C19.9995 4.44772 19.5518 4 18.9995 4Z" stroke="#FF9F29" stroke-width="1.5" stroke-linecap="round" stroke-linejoin="round"/>
<path d="M8.99951 14H4.99951C4.44723 14 3.99951 14.4477 3.99951 15V19C3.99951 19.5523 4.44723 20 4.99951 20H8.99951C9.5518 20 9.99951 19.5523 9.99951 19V15C9.99951 14.4477 9.5518 14 8.99951 14Z" stroke="#FF9F29" stroke-width="1.5" stroke-linecap="round" stroke-linejoin="round"/>
<path d="M18.9995 14H14.9995C14.4472 14 13.9995 14.4477 13.9995 15V19C13.9995 19.5523 14.4472 20 14.9995 20H18.9995C19.5518 20 19.9995 19.5523 19.9995 19V15C19.9995 14.4477 19.5518 14 18.9995 14Z" stroke="#FF9F29" stroke-width="1.5" stroke-linecap="round" stroke-linejoin="round"/>
</svg>
