<svg width="22" height="22" viewBox="0 0 22 22" fill="none" xmlns="http://www.w3.org/2000/svg">
<path d="M20.1668 11.0003V15.5837C20.1668 18.3337 18.3335 20.167 15.5835 20.167H6.41683C3.66683 20.167 1.8335 18.3337 1.8335 15.5837V11.0003C1.8335 8.50699 3.33683 6.76532 5.67433 6.47199C5.91266 6.43532 6.16016 6.41699 6.41683 6.41699H15.5835C15.8218 6.41699 16.051 6.42615 16.271 6.46281C18.636 6.73781 20.1668 8.48866 20.1668 11.0003Z" stroke="#F8FAFC" stroke-width="1.5" stroke-linecap="round" stroke-linejoin="round"/>
<path d="M16.272 6.46217C16.052 6.42551 15.8228 6.41635 15.5845 6.41635H6.41779C6.16113 6.41635 5.91363 6.43468 5.67529 6.47135C5.80363 6.21468 5.98696 5.97635 6.20696 5.75635L9.18613 2.76801C10.442 1.52134 12.477 1.52134 13.7328 2.76801L15.337 4.39053C15.9236 4.96803 16.2353 5.70134 16.272 6.46217Z" stroke="#F8FAFC" stroke-width="1.5" stroke-linecap="round" stroke-linejoin="round"/>
<path d="M20.1668 11.458H17.4168C16.4085 11.458 15.5835 12.283 15.5835 13.2913C15.5835 14.2997 16.4085 15.1247 17.4168 15.1247H20.1668" stroke="#F8FAFC" stroke-width="1.5" stroke-linecap="round" stroke-linejoin="round"/>
</svg>
