<svg width="25" height="24" viewBox="0 0 25 24" fill="none" xmlns="http://www.w3.org/2000/svg">
<path d="M12.2602 10.87C12.1602 10.86 12.0402 10.86 11.9302 10.87C9.55016 10.79 7.66016 8.84 7.66016 6.44C7.66016 3.99 9.64016 2 12.1002 2C14.5502 2 16.5402 3.99 16.5402 6.44C16.5302 8.84 14.6402 10.79 12.2602 10.87Z" stroke="#64748B" stroke-width="1.5" stroke-linecap="round" stroke-linejoin="round"/>
<path d="M6.9151 13.3725C4.4951 14.9925 4.4951 17.6325 6.9151 19.2425C9.6651 21.0825 14.1751 21.0825 16.9251 19.2425C19.3451 17.6225 19.3451 14.9825 16.9251 13.3725C14.1851 11.5425 9.6751 11.5425 6.9151 13.3725Z" stroke="#64748B" stroke-width="1.5" stroke-linecap="round" stroke-linejoin="round"/>
</svg>
