<svg width="20" height="20" viewBox="0 0 20 20" fill="none" xmlns="http://www.w3.org/2000/svg">
<path d="M10 4.63379H18.3333" stroke="#FF9F29" stroke-width="1.5" stroke-miterlimit="10" stroke-linecap="round" stroke-linejoin="round"/>
<path d="M11.85 1.66699H16.4833C17.9667 1.66699 18.3333 2.03366 18.3333 3.50033V6.92533C18.3333 8.39199 17.9667 8.75866 16.4833 8.75866H11.85C10.3667 8.75866 10 8.39199 10 6.92533V3.50033C10 2.03366 10.3667 1.66699 11.85 1.66699Z" stroke="#FF9F29" stroke-width="1.5" stroke-linecap="round" stroke-linejoin="round"/>
<path d="M1.6665 14.2168H9.99984" stroke="#FF9F29" stroke-width="1.5" stroke-miterlimit="10" stroke-linecap="round" stroke-linejoin="round"/>
<path d="M3.5165 11.25H8.14984C9.63317 11.25 9.99984 11.6167 9.99984 13.0833V16.5083C9.99984 17.975 9.63317 18.3417 8.14984 18.3417H3.5165C2.03317 18.3417 1.6665 17.975 1.6665 16.5083V13.0833C1.6665 11.6167 2.03317 11.25 3.5165 11.25Z" stroke="#FF9F29" stroke-width="1.5" stroke-linecap="round" stroke-linejoin="round"/>
<path d="M18.3333 12.5C18.3333 15.725 15.725 18.3333 12.5 18.3333L13.375 16.875" stroke="#FF9F29" stroke-width="1.5" stroke-linecap="round" stroke-linejoin="round"/>
<path d="M1.6665 7.50033C1.6665 4.27533 4.27484 1.66699 7.49984 1.66699L6.62485 3.12533" stroke="#FF9F29" stroke-width="1.5" stroke-linecap="round" stroke-linejoin="round"/>
</svg>
