<svg width="20" height="20" viewBox="0 0 20 20" fill="none" xmlns="http://www.w3.org/2000/svg">
<path d="M3.3335 5.83325V4.99992C3.3335 4.55789 3.50909 4.13397 3.82165 3.82141C4.13421 3.50885 4.55814 3.33325 5.00016 3.33325H6.66683M3.3335 14.1666V14.9999C3.3335 15.4419 3.50909 15.8659 3.82165 16.1784C4.13421 16.491 4.55814 16.6666 5.00016 16.6666H6.66683M13.3335 3.33325H15.0002C15.4422 3.33325 15.8661 3.50885 16.1787 3.82141C16.4912 4.13397 16.6668 4.55789 16.6668 4.99992V5.83325M13.3335 16.6666H15.0002C15.4422 16.6666 15.8661 16.491 16.1787 16.1784C16.4912 15.8659 16.6668 15.4419 16.6668 14.9999V14.1666M4.16683 9.99992H15.8335" stroke="#FF9F29" stroke-width="1.5" stroke-linecap="round" stroke-linejoin="round"/>
</svg>
